<svg width="24" height="24" viewBox="0 0 24 24" fill="none" xmlns="http://www.w3.org/2000/svg">
<path d="M8.29 13.29C8.19627 13.383 8.12188 13.4936 8.07111 13.6154C8.02034 13.7373 7.9942 13.868 7.9942 14C7.9942 14.132 8.02034 14.2627 8.07111 14.3846C8.12188 14.5064 8.19627 14.617 8.29 14.71L11.29 17.71C11.3831 17.8035 11.4937 17.8777 11.6156 17.9283C11.7374 17.9789 11.8681 18.005 12 18.005C12.1319 18.005 12.2626 17.9789 12.3844 17.9283C12.5063 17.8777 12.6169 17.8035 12.71 17.71L15.71 14.71C15.8032 14.6168 15.8772 14.5061 15.9277 14.3842C15.9781 14.2624 16.0041 14.1319 16.0041 14C16.0041 13.8681 15.9781 13.7376 15.9277 13.6158C15.8772 13.4939 15.8032 13.3832 15.71 13.29C15.6168 13.1968 15.5061 13.1228 15.3842 13.0723C15.2624 13.0219 15.1319 12.9959 15 12.9959C14.8681 12.9959 14.7376 13.0219 14.6158 13.0723C14.4939 13.1228 14.3832 13.1968 14.29 13.29L13 14.59V3C13 2.73478 12.8946 2.48043 12.7071 2.29289C12.5196 2.10536 12.2652 2 12 2C11.7348 2 11.4804 2.10536 11.2929 2.29289C11.1054 2.48043 11 2.73478 11 3V14.59L9.71 13.29C9.61704 13.1963 9.50644 13.1219 9.38458 13.0711C9.26272 13.0203 9.13201 12.9942 9 12.9942C8.86799 12.9942 8.73728 13.0203 8.61542 13.0711C8.49356 13.1219 8.38296 13.1963 8.29 13.29ZM18 9H16C15.7348 9 15.4804 9.10536 15.2929 9.29289C15.1054 9.48043 15 9.73478 15 10C15 10.2652 15.1054 10.5196 15.2929 10.7071C15.4804 10.8946 15.7348 11 16 11H18C18.2652 11 18.5196 11.1054 18.7071 11.2929C18.8946 11.4804 19 11.7348 19 12V19C19 19.2652 18.8946 19.5196 18.7071 19.7071C18.5196 19.8946 18.2652 20 18 20H6C5.73478 20 5.48043 19.8946 5.29289 19.7071C5.10536 19.5196 5 19.2652 5 19V12C5 11.7348 5.10536 11.4804 5.29289 11.2929C5.48043 11.1054 5.73478 11 6 11H8C8.26522 11 8.51957 10.8946 8.70711 10.7071C8.89464 10.5196 9 10.2652 9 10C9 9.73478 8.89464 9.48043 8.70711 9.29289C8.51957 9.10536 8.26522 9 8 9H6C5.20435 9 4.44129 9.31607 3.87868 9.87868C3.31607 10.4413 3 11.2044 3 12V19C3 19.7956 3.31607 20.5587 3.87868 21.1213C4.44129 21.6839 5.20435 22 6 22H18C18.7956 22 19.5587 21.6839 20.1213 21.1213C20.6839 20.5587 21 19.7956 21 19V12C21 11.2044 20.6839 10.4413 20.1213 9.87868C19.5587 9.31607 18.7956 9 18 9Z" fill="white"/>
</svg>
